<?xml version="1.0" standalone="no"?>
<!DOCTYPE svg PUBLIC "-//W3C//DTD SVG 20010904//EN"
 "http://www.w3.org/TR/2001/REC-SVG-20010904/DTD/svg10.dtd">
<svg version="1.0" xmlns="http://www.w3.org/2000/svg"
 width="2048.000000pt" height="2048.000000pt" viewBox="0 0 2048.000000 2048.000000"
 preserveAspectRatio="xMidYMid meet">

<g transform="translate(0.000000,2048.000000) scale(0.100000,-0.100000)"
fill="#000000" stroke="none">
<path d="M6778 12273 c-1 -1550 -4 -2784 -8 -2743 -4 51 -7 61 -8 32 -2 -50
-16 -50 -20 0 -2 18 -7 35 -12 36 -6 2 -10 10 -10 18 0 10 -5 12 -12 7 -21
-12 -39 -12 -31 0 15 24 10 45 -9 42 -12 -3 -16 0 -11 8 10 16 11 28 2 53 -5
13 -3 26 4 33 9 9 8 11 -6 5 -13 -5 -16 -2 -11 10 4 11 2 16 -6 14 -8 -2 -13
9 -15 29 -1 24 2 30 11 22 8 -6 13 -5 18 6 3 9 2 14 -2 12 -8 -6 -25 13 -31
33 -2 8 -6 24 -9 34 -4 14 -2 17 9 11 8 -5 11 -4 6 1 -9 9 -13 10 -41 13 -16
1 -15 26 2 43 8 8 15 8 25 0 8 -7 17 -9 21 -5 4 4 12 1 17 -7 8 -11 8 -8 3 10
-4 14 -11 27 -15 28 -5 2 -9 8 -9 14 0 5 -7 16 -15 24 -13 14 -15 14 -15 0 0
-9 5 -16 10 -16 6 0 10 -8 10 -17 0 -14 -2 -15 -9 -4 -7 10 -13 11 -31 1 -15
-8 -20 -8 -16 -1 4 7 -1 11 -12 11 -11 0 -23 7 -26 16 -5 14 -4 15 9 4 10 -8
15 -9 15 -1 0 6 5 11 11 11 5 0 7 -5 3 -12 -5 -7 -3 -8 5 -3 9 5 9 11 3 17 -6
6 -8 18 -5 27 4 12 2 11 -9 -3 -15 -20 -38 -15 -38 8 0 7 -11 19 -25 26 -30
16 -32 30 -5 30 11 0 19 -5 17 -11 -1 -6 7 -14 18 -19 16 -6 21 -4 21 11 0 12
-4 15 -10 9 -12 -12 -29 -13 -22 -2 3 5 -4 16 -15 25 -13 11 -19 13 -19 4 0
-8 -4 -7 -10 3 -8 12 -10 10 -11 -10 l-1 -25 -8 25 c-4 14 -8 21 -9 16 -1 -5
-8 -3 -16 4 -9 7 -18 10 -22 6 -3 -3 -1 -6 6 -6 7 0 10 -4 6 -9 -3 -5 3 -12
12 -14 10 -3 3 -4 -15 -3 -18 2 -32 6 -32 9 0 13 -44 57 -56 57 -7 0 -16 5
-20 12 -5 7 -2 9 7 6 12 -5 14 1 11 23 -2 16 -8 26 -13 23 -5 -3 -9 0 -9 6 0
6 -4 9 -9 5 -6 -3 -14 3 -20 12 -10 17 -12 17 -41 1 -16 -9 -30 -13 -30 -8 0
6 4 10 10 10 5 0 8 6 6 13 -1 6 -1 9 1 5 3 -5 9 -8 14 -8 6 0 8 4 5 9 -4 5 0
12 6 14 7 3 -2 8 -20 12 -20 5 -38 17 -47 34 -8 14 -14 20 -15 14 0 -7 -7 -13
-16 -13 -8 0 -12 -5 -9 -10 5 -8 11 -7 21 1 11 9 14 8 14 -5 0 -20 -33 -21
-50 -1 -9 11 -9 15 -1 15 7 0 9 4 6 10 -3 5 0 8 7 5 12 -4 56 21 47 28 -32 24
-62 36 -72 30 -8 -4 -7 -1 2 10 12 15 9 21 -11 18 -16 -2 6 31 26 40 17 7 15
8 -14 7 -52 -1 -62 1 -55 12 4 6 10 8 15 5 12 -7 6 20 -8 37 -6 8 -8 19 -4 24
4 5 -3 1 -14 -9 -20 -17 -23 -17 -38 -2 -9 9 -16 13 -16 8 0 -4 -5 0 -11 10
-6 9 -14 15 -19 12 -4 -3 -11 2 -14 11 -5 12 -2 15 9 10 9 -3 13 -2 10 4 -3 6
-17 10 -31 10 -15 0 -23 4 -19 10 4 6 11 7 17 4 7 -4 8 -2 4 5 -4 6 -12 9 -17
6 -5 -4 -9 -2 -9 3 0 5 -10 8 -22 8 -17 -1 -22 4 -20 18 2 10 -1 15 -7 11 -6
-3 -9 0 -5 8 3 8 1 18 -5 22 -6 3 -11 1 -11 -4 0 -6 -4 -10 -9 -8 -5 1 -9 -1
-10 -5 -3 -21 0 -29 8 -23 11 6 26 -13 18 -22 -5 -5 -40 15 -48 28 -2 3 2 13
10 22 12 16 9 21 -11 18 -5 0 -8 4 -8 9 0 6 7 10 16 10 14 0 14 2 0 15 -18 18
-30 20 -21 3 4 -7 1 -6 -7 3 -15 18 -38 14 -38 -7 0 -9 -4 -13 -9 -10 -5 4
-12 0 -15 -6 -2 -7 -3 -2 -2 12 2 14 8 26 14 26 7 1 18 2 25 3 8 1 7 4 -3 11
-11 7 -7 9 15 6 17 -2 24 -1 18 1 -7 2 -13 10 -14 16 0 7 -13 22 -30 35 -23
19 -29 20 -29 8 0 -9 5 -16 11 -16 5 0 8 -4 4 -9 -3 -5 5 -12 17 -14 20 -4 19
-4 -4 -6 -42 -2 -43 -2 -44 7 -2 20 -18 42 -30 42 -12 0 -12 4 -4 20 6 11 15
18 20 15 5 -3 11 -1 14 4 7 10 -22 19 -46 13 -9 -2 -15 -9 -12 -16 3 -9 -4
-12 -23 -11 -15 0 -27 5 -25 11 2 5 11 8 20 6 15 -2 15 -1 -1 8 -9 6 -15 15
-12 21 9 13 -9 11 -23 -3 -9 -9 -9 -5 0 14 7 15 16 24 20 22 4 -3 5 2 2 10 -3
9 -10 16 -16 16 -5 0 -7 -4 -3 -9 3 -5 -4 -12 -15 -16 -11 -4 -18 -10 -16 -14
3 -4 -4 -7 -13 -7 -15 0 -16 4 -8 17 6 9 18 15 26 12 13 -4 13 -3 2 5 -8 6
-12 16 -9 24 4 9 -1 14 -13 14 -11 0 -19 -4 -19 -8 0 -4 4 -8 10 -8 5 0 7 -7
4 -15 -4 -8 -10 -15 -16 -15 -5 0 -7 4 -4 8 2 4 1 14 -3 20 -6 10 -15 10 -36
2 -29 -11 -29 -11 -10 9 14 16 15 21 4 21 -9 1 -5 9 11 22 20 17 21 20 5 14
-11 -5 -29 -11 -40 -14 -18 -5 -19 -4 -5 13 8 11 10 16 3 11 -9 -5 -11 -2 -7
8 3 9 10 14 14 11 5 -3 11 -1 15 5 3 5 0 10 -7 10 -20 0 -38 46 -24 61 8 9 6
9 -11 0 -13 -6 -23 -8 -23 -4 0 4 -6 1 -12 -5 -10 -10 -10 -15 2 -22 13 -8 12
-10 -2 -10 -20 0 -24 20 -7 37 7 7 8 20 5 30 -7 16 -10 14 -22 -12 -9 -20 -13
-23 -11 -10 1 13 -3 19 -13 17 -11 -3 -12 -1 -4 8 9 9 5 19 -17 39 -16 16 -25
31 -21 35 4 4 -6 4 -21 1 -24 -7 -28 -5 -26 11 2 11 0 20 -4 22 -18 6 -25 0
-20 -18 3 -11 0 -20 -6 -20 -13 0 -15 36 -1 45 5 3 7 12 4 20 -4 8 -10 12 -15
9 -11 -7 -11 7 0 25 7 11 11 10 20 -6 5 -11 7 -23 4 -27 -3 -3 -1 -6 5 -6 7 0
12 11 12 25 0 14 -5 25 -11 25 -5 0 -7 5 -3 12 4 6 3 8 -3 5 -12 -7 -38 26
-46 58 -5 22 -9 -2243 -7 -4650 1 -1016 5 -1596 11 -1645 54 -387 354 -705
741 -784 70 -14 485 -16 4315 -16 4608 1 4309 -3 4463 57 133 52 217 108 325
217 148 149 233 313 264 506 8 44 11 1194 11 3636 l0 3572 -641 638 c-352 352
-647 643 -655 647 -12 7 -14 -79 -15 -630 -1 -351 -3 -685 -5 -743 -2 -58 -4
-218 -4 -356 l0 -251 -147 -139 c-156 -146 -770 -733 -937 -894 l-98 -96 274
-365 c345 -459 811 -1061 1342 -1733 65 -83 123 -157 129 -163 7 -10 -282 -13
-1439 -13 l-1449 0 -431 468 c-237 257 -603 652 -814 877 -211 226 -530 568
-710 760 -661 708 -998 1073 -1038 1126 -54 72 -116 206 -136 296 -21 92 -21
269 -1 348 48 187 193 333 385 386 34 10 298 14 1070 18 l1025 6 66 32 c85 42
158 119 189 198 23 59 23 69 24 410 1 348 1 350 -23 410 -33 82 -124 173 -206
206 l-60 24 -1472 0 c-809 0 -1474 -3 -1477 -6 -3 -3 -6 -669 -6 -1480 l0
-1474 -89 -80 c-48 -44 -161 -147 -251 -230 -89 -82 -185 -169 -211 -193 l-49
-44 0 2045 0 2045 153 7 c83 3 1018 5 2077 3 1819 -3 1928 -4 1978 -21 80 -27
151 -90 192 -172 l35 -68 0 -956 0 -956 -26 -55 c-49 -106 -127 -170 -238
-197 -41 -10 -208 -16 -616 -23 -916 -16 -812 -11 -874 -45 -101 -56 -151
-142 -151 -260 0 -74 12 -114 54 -177 17 -25 232 -255 477 -510 395 -411 761
-794 1119 -1172 172 -182 832 -886 866 -924 l29 -33 450 3 450 3 -155 160
c-236 244 -524 549 -1665 1760 l-509 540 236 7 c434 12 622 56 831 195 200
132 315 321 364 593 17 98 18 181 18 1255 l0 1150 -29 88 c-47 144 -128 254
-245 331 -80 54 -143 79 -244 100 -68 14 -351 16 -2657 16 l-2580 0 -2 -2817z
m-1488 -994 c0 -11 5 -17 10 -14 6 3 10 -2 10 -11 0 -16 -1 -16 -20 1 -21 19
-27 45 -10 45 6 0 10 -9 10 -21z m14 -64 c-4 -8 -11 -15 -16 -15 -6 0 -5 6 2
15 7 8 14 15 16 15 2 0 1 -7 -2 -15z m36 -43 c0 -5 -7 -9 -15 -9 -8 0 -12 4
-9 9 3 4 9 8 15 8 5 0 9 -4 9 -8z m67 -36 c0 -8 -6 -12 -14 -9 -7 3 -10 9 -7
14 8 14 21 11 21 -5z m130 -188 c-3 -8 -6 -5 -6 6 -1 11 2 17 5 13 3 -3 4 -12
1 -19z m133 -68 c0 -17 -15 -11 -28 11 -12 19 -11 19 8 9 11 -6 20 -15 20 -20z
m26 -67 c-6 -6 -36 9 -36 18 0 5 9 4 20 -3 10 -7 18 -14 16 -15z m254 -192 c0
-4 -7 -8 -15 -8 -16 0 -20 9 -9 20 8 8 24 -1 24 -12z m93 -56 c-3 -9 -8 -14
-10 -11 -3 3 -2 9 2 15 9 16 15 13 8 -4z m32 -85 c23 -28 25 -38 7 -42 -13 -4
-18 1 -20 21 -1 14 -6 27 -11 29 -5 2 -6 13 -3 25 6 21 6 21 10 2 2 -11 10
-27 17 -35z m70 -50 c3 -5 1 -10 -4 -10 -6 0 -11 5 -11 10 0 6 2 10 4 10 3 0
8 -4 11 -10z m1839 -1265 c-57 -49 -110 -71 -98 -41 3 8 1 22 -4 32 -8 14 -10
14 -15 -5 -3 -12 -1 -19 4 -15 5 3 9 0 9 -5 0 -6 -4 -12 -10 -12 -31 -4 -45
-2 -43 7 1 5 -7 10 -18 10 -20 0 -27 -30 -9 -41 6 -3 10 -11 10 -18 0 -6 -6
-3 -13 8 -9 11 -19 15 -27 10 -8 -5 -11 -4 -7 2 4 6 0 16 -8 23 -8 7 -12 17
-9 22 4 6 -2 5 -14 -1 -15 -8 -22 -8 -25 2 -4 8 -6 8 -6 1 -1 -7 10 -19 24
-28 14 -9 23 -21 20 -25 -2 -5 3 -15 12 -22 14 -12 15 -12 9 0 -6 8 1 7 18 -4
22 -15 24 -20 14 -33 -9 -11 -9 -14 -1 -9 6 4 15 3 18 -3 4 -6 3 -9 -2 -8 -5
2 -35 -25 -67 -60 -33 -34 -61 -61 -63 -58 -2 2 -27 -20 -54 -49 -28 -29 -55
-52 -62 -51 -26 4 -34 17 -34 60 0 35 4 47 18 51 11 4 16 13 14 25 -2 12 3 21
15 25 21 7 34 45 15 45 -7 0 -16 16 -19 35 -5 24 -11 33 -21 28 -8 -3 -15 -1
-15 5 0 6 12 9 27 7 26 -3 58 17 46 29 -4 3 3 6 15 6 11 0 24 -5 28 -12 4 -6
3 -8 -4 -4 -20 12 -22 -11 -2 -29 18 -16 18 -16 13 4 -3 13 -1 21 6 21 7 0 9
4 6 10 -4 6 6 7 27 4 l33 -6 -24 18 c-14 10 -32 18 -42 19 -9 1 -24 7 -33 14
-19 16 -22 1 -3 -18 8 -10 8 -12 0 -7 -6 3 -18 -3 -26 -15 -14 -19 -16 -19
-25 -3 -5 9 -7 26 -4 38 5 19 4 19 -11 7 -9 -7 -17 -9 -17 -3 0 5 7 15 15 22
12 10 13 16 4 26 -17 21 -29 7 -30 -34 0 -20 -3 -31 -6 -24 -3 7 -22 12 -46
12 -39 0 -40 1 -21 16 14 11 16 17 6 21 -18 7 34 34 53 27 12 -5 12 -1 2 20
-12 26 -27 35 -27 15 0 -6 -8 -18 -17 -27 -16 -16 -16 -16 -11 6 3 12 2 22 -3
22 -5 0 -9 -8 -10 -17 0 -16 -1 -16 -8 1 -5 12 -10 16 -14 9 -8 -12 -25 -12
-45 1 -17 10 -94 -3 -86 -15 3 -5 1 -9 -4 -9 -5 0 -8 -12 -5 -27 3 -26 3 -27
-6 -5 -12 25 -21 28 -39 10 -6 -6 -21 -13 -33 -15 -20 -3 -20 -3 3 29 l23 33
-28 -18 c-50 -32 -28 -3 60 81 51 47 93 80 101 77 8 -3 12 0 10 7 -5 14 80 95
94 90 4 -1 7 3 6 9 -2 6 8 18 22 27 13 9 21 12 17 6 -4 -7 1 -18 11 -25 13
-10 14 -10 6 0 -23 25 18 72 254 291 l237 220 3 -397 2 -398 -56 -50z m-1399
745 c-3 -5 -12 -10 -18 -10 -7 0 -6 4 3 10 19 12 23 12 15 0z m30 -150 c3 -6
-1 -7 -9 -4 -18 7 -21 14 -7 14 6 0 13 -4 16 -10z m762 -540 c3 -10 2 -11 -4
-4 -4 6 -15 14 -23 17 -11 5 -9 6 4 4 11 -1 21 -9 23 -17z m188 -29 c3 -5 1
-12 -5 -16 -5 -3 -10 1 -10 9 0 18 6 21 15 7z m5 -91 c0 -5 -2 -10 -4 -10 -3
0 -8 5 -11 10 -3 6 -1 10 4 10 6 0 11 -4 11 -10z m308 -11 c3 -12 2 -12 -6 0
-6 9 -12 10 -16 3 -7 -11 -36 -5 -36 7 0 13 54 4 58 -10z m-1100 -61 c-1 -45
-3 -58 -5 -34 -3 22 -12 46 -21 54 -16 13 -16 13 1 8 13 -4 17 0 17 19 0 14 2
25 5 25 3 0 4 -33 3 -72z m736 57 c-4 -8 -11 -15 -16 -15 -6 0 -5 6 2 15 7 8
14 15 16 15 2 0 1 -7 -2 -15z m56 -49 c0 -3 -4 -8 -10 -11 -5 -3 -10 -1 -10 4
0 6 5 11 10 11 6 0 10 -2 10 -4z m-815 -55 c1 -23 -2 -28 -12 -19 -9 7 -10 15
-2 29 13 25 14 24 14 -10z m814 -12 c-16 -10 -23 -4 -14 10 3 6 11 8 17 5 6
-4 5 -9 -3 -15z m-144 1 c3 -5 1 -10 -4 -10 -6 0 -11 5 -11 10 0 6 2 10 4 10
3 0 8 -4 11 -10z m116 -43 c-10 -9 -11 -8 -5 6 3 10 9 15 12 12 3 -3 0 -11 -7
-18z m4051 -2051 c245 -47 429 -179 536 -383 72 -139 94 -226 95 -383 1 -142
-15 -220 -68 -336 -140 -306 -428 -472 -779 -451 -226 14 -400 95 -542 251
-76 82 -119 155 -155 258 -159 465 99 942 566 1041 90 20 253 21 347 3z
m-4607 -31 c263 -68 395 -244 382 -510 -5 -117 -27 -184 -89 -270 -45 -63
-138 -130 -194 -141 -19 -3 -34 -10 -34 -15 0 -5 77 -126 171 -270 94 -144
173 -268 176 -276 4 -10 -24 -13 -146 -13 -148 0 -151 0 -163 24 -7 13 -83
130 -168 260 l-155 236 -182 0 -183 0 0 -260 0 -261 -132 3 -133 3 -2 740 c-1
407 0 746 2 753 7 20 771 17 850 -3z m1955 -100 l0 -115 -445 0 -445 0 0 -195
0 -195 400 0 400 0 0 -115 0 -115 -400 0 -400 0 2 -211 3 -210 349 1 c191 0
395 -3 452 -6 l104 -7 0 -113 0 -114 -584 0 -584 0 -6 33 c-3 17 -6 357 -5
755 l0 722 580 0 579 0 0 -115z m1520 0 l0 -115 -250 0 -250 0 0 -640 0 -640
-135 0 -135 0 -2 638 -3 637 -252 3 -253 2 0 115 0 115 640 0 640 0 0 -115z
m3584 103 c-4 -7 -80 -119 -168 -248 -89 -129 -231 -341 -317 -470 l-157 -235
256 -3 c141 -1 262 0 269 3 10 3 13 61 13 248 l0 244 121 7 c67 4 123 6 124 4
2 -2 7 -117 11 -256 l7 -252 104 0 103 0 0 -115 0 -115 -105 0 -105 0 0 -155
0 -155 -130 0 -130 0 0 155 0 155 -425 0 -425 0 0 108 0 107 88 127 c48 70
145 212 216 315 71 103 185 268 255 365 l126 178 138 0 c108 0 137 -3 131 -12z"/>
<path d="M7500 9492 c0 -5 7 -9 15 -9 8 0 12 4 9 9 -3 4 -9 8 -15 8 -5 0 -9
-4 -9 -8z"/>
<path d="M7500 9349 c0 -5 5 -7 10 -4 6 3 10 8 10 11 0 2 -4 4 -10 4 -5 0 -10
-5 -10 -11z"/>
<path d="M7460 9290 c0 -19 3 -21 12 -12 9 9 9 15 0 24 -9 9 -12 7 -12 -12z"/>
<path d="M7555 9290 c-4 -6 -11 -7 -17 -4 -7 4 -8 2 -4 -4 7 -12 36 -5 36 9 0
12 -7 11 -15 -1z"/>
<path d="M7630 9283 c14 -7 13 -30 -2 -36 -8 -3 -5 -6 5 -6 13 -1 18 5 15 21
-2 12 -9 23 -16 24 -7 1 -8 0 -2 -3z"/>
<path d="M7380 9266 c0 -2 7 -9 15 -16 13 -11 14 -10 9 4 -5 14 -24 23 -24 12z"/>
<path d="M7428 9263 c7 -3 16 -2 19 1 4 3 -2 6 -13 5 -11 0 -14 -3 -6 -6z"/>
<path d="M7580 9256 c0 -2 7 -6 15 -10 8 -3 15 -1 15 4 0 6 -7 10 -15 10 -8 0
-15 -2 -15 -4z"/>
<path d="M7598 9224 c-10 -9 3 -35 13 -28 5 3 9 0 9 -5 0 -6 6 -11 13 -11 7 0
13 9 13 20 0 14 -5 19 -15 15 -8 -3 -17 -1 -21 5 -3 6 -9 8 -12 4z"/>
<path d="M7662 9208 c2 -6 10 -14 16 -16 7 -2 10 2 6 12 -7 18 -28 22 -22 4z"/>
<path d="M7496 9203 c-11 -12 -6 -19 14 -20 11 -1 20 2 20 7 0 10 -26 20 -34
13z"/>
<path d="M7704 9175 c-16 -12 -17 -14 -3 -15 9 0 19 7 23 15 7 19 5 19 -20 0z"/>
<path d="M7661 9162 c-7 -14 -6 -18 9 -18 13 0 16 4 10 12 -6 6 -7 14 -3 17 3
4 3 7 0 7 -3 0 -11 -8 -16 -18z"/>
<path d="M7945 9161 c3 -5 1 -12 -5 -16 -5 -3 -10 -1 -10 6 0 8 -4 8 -15 -1
-8 -7 -15 -18 -14 -24 0 -7 2 -6 6 2 2 6 9 12 14 12 6 0 7 -6 3 -12 -4 -7 2
-5 14 6 19 16 22 36 6 36 -3 0 -3 -4 1 -9z"/>
<path d="M7760 9150 c0 -5 5 -10 11 -10 5 0 7 5 4 10 -3 6 -8 10 -11 10 -2 0
-4 -4 -4 -10z"/>
<path d="M7595 9050 c-3 -5 -1 -18 4 -27 7 -12 10 -13 11 -4 0 8 6 11 17 7 15
-6 15 -4 -2 14 -21 23 -22 23 -30 10z"/>
<path d="M7586 8923 c-6 -14 -5 -15 5 -6 7 7 10 15 7 18 -3 3 -9 -2 -12 -12z"/>
<path d="M7547 8893 c-13 -12 -7 -23 11 -22 10 0 12 3 4 6 -6 2 -10 9 -6 14 6
10 0 12 -9 2z"/>
<path d="M7563 8822 c-16 -27 12 -25 34 2 15 17 15 18 1 8 -10 -8 -17 -9 -20
-2 -1 5 -8 2 -15 -8z"/>
<path d="M11310 6634 c-188 -40 -328 -174 -386 -370 -24 -80 -24 -238 0 -318
58 -193 188 -324 371 -371 68 -17 199 -19 265 -4 124 28 273 143 333 256 38
71 67 192 67 278 0 86 -29 207 -67 278 -42 78 -146 178 -223 215 -107 51 -234
64 -360 36z"/>
<path d="M6400 6366 l0 -266 178 0 c232 0 336 12 398 43 60 30 77 49 105 112
45 102 15 249 -63 308 -75 58 -93 61 -365 65 l-253 4 0 -266z"/>
<path d="M5271 11421 c-8 -5 -9 -11 -3 -15 5 -3 12 1 16 9 6 17 6 18 -13 6z"/>
<path d="M5267 11363 c-10 -9 -9 -23 1 -23 5 0 9 7 9 15 0 17 -1 18 -10 8z"/>
<path d="M5510 11135 c-7 -9 -8 -15 -2 -15 5 0 12 7 16 15 3 8 4 15 2 15 -2 0
-9 -7 -16 -15z"/>
<path d="M5479 11098 c0 -2 -2 -11 -4 -21 -3 -15 -1 -16 11 -6 7 6 11 15 8 20
-5 9 -13 12 -15 7z"/>
<path d="M5605 11040 c-4 -6 1 -7 11 -3 11 4 22 -1 30 -12 8 -10 14 -14 14 -9
0 26 -42 44 -55 24z"/>
<path d="M5655 10990 c3 -5 11 -10 16 -10 6 0 7 5 4 10 -3 6 -11 10 -16 10 -6
0 -7 -4 -4 -10z"/>
<path d="M5715 10928 c11 -6 23 -15 26 -20 3 -5 12 -1 20 8 12 16 12 17 -3 11
-10 -3 -18 -2 -18 3 0 6 -10 10 -22 10 -22 -1 -22 -1 -3 -12z"/>
<path d="M5850 10835 c-11 -13 -15 -13 -21 -3 -7 10 -9 9 -9 -4 0 -24 13 -23
35 2 10 11 16 20 13 20 -3 0 -11 -7 -18 -15z"/>
<path d="M5861 10806 c-14 -17 6 -69 22 -59 6 4 8 0 4 -10 -4 -11 -1 -17 7
-17 16 0 14 27 -3 59 -11 19 -11 25 0 32 11 7 11 9 -2 9 -9 0 -22 -6 -28 -14z"/>
<path d="M5935 10740 c-13 -6 -15 -9 -5 -9 8 0 22 4 30 9 18 12 2 12 -25 0z"/>
<path d="M5999 10713 c-13 -16 -12 -17 4 -4 16 13 21 21 13 21 -2 0 -10 -8
-17 -17z"/>
<path d="M5950 10716 c0 -2 7 -6 15 -10 8 -3 15 -1 15 4 0 6 -7 10 -15 10 -8
0 -15 -2 -15 -4z"/>
<path d="M5974 10678 c-5 -7 -3 -8 6 -3 9 5 10 2 5 -14 -7 -23 -5 -24 19 -15
12 5 13 9 3 25 -14 22 -23 24 -33 7z"/>
<path d="M6010 10681 c0 -3 7 -14 14 -24 13 -16 14 -16 14 6 0 13 -6 24 -14
24 -8 0 -14 -3 -14 -6z"/>
<path d="M6097 10619 c7 -7 15 -10 18 -7 3 3 -2 9 -12 12 -14 6 -15 5 -6 -5z"/>
<path d="M6125 10579 c-4 -6 -5 -12 -2 -15 2 -3 7 2 10 11 7 17 1 20 -8 4z"/>
<path d="M6110 10514 c0 -3 6 -11 13 -18 10 -11 15 -11 25 0 6 7 8 15 3 19 -5
3 -12 -1 -14 -7 -4 -10 -6 -10 -6 0 -1 11 -21 18 -21 6z"/>
<path d="M6225 10381 c-3 -5 -1 -12 5 -16 5 -3 10 1 10 9 0 18 -6 21 -15 7z"/>
<path d="M6250 10366 c0 -6 10 -24 21 -41 12 -16 19 -22 15 -12 -6 18 9 24 17
7 3 -6 4 -5 3 2 -2 7 -11 12 -20 12 -19 -2 -22 12 -3 19 9 4 9 6 -1 6 -7 1
-11 5 -8 9 3 5 -1 9 -9 9 -8 0 -15 -5 -15 -11z"/>
<path d="M6361 10280 c3 -16 0 -24 -8 -22 -15 2 -17 -14 -3 -23 6 -3 13 1 16
10 4 9 13 14 20 11 21 -8 17 8 -7 30 -21 19 -21 19 -18 -6z"/>
<path d="M6430 10230 c0 -5 -6 -10 -14 -10 -8 0 -18 -4 -21 -10 -4 -7 2 -7 18
-1 14 6 28 7 32 3 3 -3 3 1 -1 11 -7 19 -14 22 -14 7z"/>
<path d="M6540 10174 c0 -8 5 -12 10 -9 6 4 8 11 5 16 -9 14 -15 11 -15 -7z"/>
</g>
</svg>
